<svg width="199" height="119" viewBox="0 0 199 119" fill="none" xmlns="http://www.w3.org/2000/svg">
<path d="M57.6555 25.0614C53.0264 25.3589 48.2783 26.6203 44.268 28.6195C42.4116 29.5477 42.6139 29.5477 41.5548 28.5362C40.4481 27.489 39.5318 26.9059 38.2585 26.4656C37.4136 26.1681 37.1399 26.1324 35.819 26.1324C34.5338 26.1324 34.2125 26.1681 33.4152 26.4418C30.7496 27.3343 28.5243 29.7262 27.9055 32.368C27.6794 33.3676 27.6794 35.0931 27.9055 35.9975C28.2744 37.4136 28.9884 38.675 30.1427 39.9602C30.6901 40.5671 30.6901 40.5671 29.7857 42.1022C27.4295 46.1006 25.942 50.4798 25.2756 55.335C24.99 57.3818 24.99 61.6182 25.2756 63.665C25.8111 67.5444 26.775 70.8407 28.322 74.1132C33.796 85.6086 45.1129 93.2365 57.6555 93.8791C59.7499 93.9862 62.6178 93.8672 64.379 93.5935C77.4333 91.6181 88.2147 82.5146 92.2607 70.0315C94.2361 63.9506 94.486 57.715 92.9985 51.5865C92.106 47.8856 90.9398 45.0534 88.8454 41.531C88.4765 40.9122 88.179 40.341 88.179 40.2696C88.179 40.1982 88.4765 39.7698 88.8335 39.3176C90.1187 37.7111 90.678 36.1403 90.678 34.153C90.678 32.7845 90.4757 31.9039 89.845 30.6425C87.9053 26.7036 83.2524 25.0019 79.3492 26.7988C78.3377 27.2629 77.6832 27.7151 76.7669 28.5957L76.0648 29.274L74.8986 28.6909C71.281 26.9297 67.5682 25.7992 63.665 25.2994C62.2489 25.109 58.905 24.99 57.6555 25.0614ZM64.1767 28.2506C67.7824 28.8456 70.6741 29.7738 73.8276 31.3803C79.8847 34.4624 84.7994 39.4604 87.822 45.6365C89.2262 48.4925 89.964 50.8368 90.5114 54.2045C90.7613 55.7753 90.8684 60.5115 90.6899 62.0704C89.7736 70.0791 85.6205 76.0291 78.4805 79.5872C71.5785 83.0382 63.7721 83.0501 56.8225 79.6348C52.0863 77.3024 48.1831 73.7205 45.577 69.2937C44.268 67.0684 43.2922 66.0569 41.7095 65.2834C40.5314 64.7003 39.5318 64.4742 38.199 64.4623C36.0332 64.4504 34.1292 65.2239 32.606 66.7471C31.5945 67.7467 31.0352 68.663 30.5116 70.1386L30.1903 71.0668L29.8333 70.1386C27.8698 64.8431 27.4176 58.8931 28.56 53.2049C31.2256 39.9483 42.1498 29.8571 55.692 28.1316C57.3937 27.9174 62.5821 27.9888 64.1767 28.2506Z" fill="white"/>
<path d="M46.172 41.1859C43.4231 41.5905 40.9122 44.0062 40.1625 46.9455C39.627 49.0399 40.1982 51.3009 41.5667 52.5623C43.1732 54.0379 45.3628 54.264 47.5762 53.1811C50.1942 51.8959 51.8721 49.2303 51.884 46.3267C51.884 42.9828 49.3493 40.7099 46.172 41.1859Z" fill="white"/>
<path d="M70.805 41.1859C68.4131 41.5905 66.759 43.6968 66.759 46.3624C66.759 50.5869 70.8169 54.4425 74.5773 53.788C76.5051 53.4548 77.9807 52.0863 78.4924 50.1585C78.7185 49.3493 78.6947 47.7309 78.4686 46.8503C77.5404 43.2684 73.9942 40.6504 70.805 41.1859Z" fill="white"/>
<path d="M57.4413 46.9574C55.2636 47.4334 53.669 48.6472 53.669 49.7896C53.669 50.7297 54.2878 51.3366 56.287 52.3124C57.7745 53.0383 58.2029 53.3715 58.5361 54.0617C58.8574 54.7281 58.8455 55.3707 58.5004 56.1085C57.953 57.2866 56.644 58.1553 54.9185 58.5004C53.4191 58.7979 53.1692 58.8693 52.5623 59.262C51.289 60.0593 51.17 61.6777 52.2886 62.9153C54.8709 65.7713 62.4036 66.0212 65.6523 63.3556C66.4139 62.7249 66.7828 62.0228 66.7828 61.1779C66.7828 59.738 65.8189 58.8812 63.903 58.6075C62.4274 58.3933 60.7733 57.5484 60.1783 56.6797C58.8812 54.7995 59.4524 53.5262 62.1537 52.2529C64.617 51.1105 65.2715 49.9562 64.1886 48.6829C62.9153 47.1954 59.8451 46.41 57.4413 46.9574Z" fill="white"/>
<path d="M111.264 40.2C112.752 40.2 114.04 40.448 115.128 40.944C116.232 41.44 117.08 42.144 117.672 43.056C118.264 43.968 118.56 45.048 118.56 46.296C118.56 47.528 118.264 48.608 117.672 49.536C117.08 50.448 116.232 51.152 115.128 51.648C114.04 52.128 112.752 52.368 111.264 52.368H107.88V57H103.992V40.2H111.264ZM111.048 49.2C112.216 49.2 113.104 48.952 113.712 48.456C114.32 47.944 114.624 47.224 114.624 46.296C114.624 45.352 114.32 44.632 113.712 44.136C113.104 43.624 112.216 43.368 111.048 43.368H107.88V49.2H111.048ZM131.556 53.4H123.756L122.268 57H118.284L125.772 40.2H129.612L137.124 57H133.044L131.556 53.4ZM130.332 50.448L127.668 44.016L125.004 50.448H130.332ZM154.275 40.2V57H151.083L142.707 46.8V57H138.867V40.2H142.083L150.435 50.4V40.2H154.275ZM158.25 40.2H165.882C167.706 40.2 169.314 40.552 170.706 41.256C172.114 41.944 173.202 42.92 173.97 44.184C174.754 45.448 175.146 46.92 175.146 48.6C175.146 50.28 174.754 51.752 173.97 53.016C173.202 54.28 172.114 55.264 170.706 55.968C169.314 56.656 167.706 57 165.882 57H158.25V40.2ZM165.69 53.808C167.37 53.808 168.706 53.344 169.698 52.416C170.706 51.472 171.21 50.2 171.21 48.6C171.21 47 170.706 45.736 169.698 44.808C168.706 43.864 167.37 43.392 165.69 43.392H162.138V53.808H165.69ZM188.908 53.4H181.108L179.62 57H175.636L183.124 40.2H186.964L194.476 57H190.396L188.908 53.4ZM187.684 50.448L185.02 44.016L182.356 50.448H187.684ZM109.512 78.288C108.184 78.288 106.896 78.112 105.648 77.76C104.416 77.392 103.424 76.92 102.672 76.344L103.992 73.416C104.712 73.944 105.568 74.368 106.56 74.688C107.552 75.008 108.544 75.168 109.536 75.168C110.64 75.168 111.456 75.008 111.984 74.688C112.512 74.352 112.776 73.912 112.776 73.368C112.776 72.968 112.616 72.64 112.296 72.384C111.992 72.112 111.592 71.896 111.096 71.736C110.616 71.576 109.96 71.4 109.128 71.208C107.848 70.904 106.8 70.6 105.984 70.296C105.168 69.992 104.464 69.504 103.872 68.832C103.296 68.16 103.008 67.264 103.008 66.144C103.008 65.168 103.272 64.288 103.8 63.504C104.328 62.704 105.12 62.072 106.176 61.608C107.248 61.144 108.552 60.912 110.088 60.912C111.16 60.912 112.208 61.04 113.232 61.296C114.256 61.552 115.152 61.92 115.92 62.4L114.72 65.352C113.168 64.472 111.616 64.032 110.064 64.032C108.976 64.032 108.168 64.208 107.64 64.56C107.128 64.912 106.872 65.376 106.872 65.952C106.872 66.528 107.168 66.96 107.76 67.248C108.368 67.52 109.288 67.792 110.52 68.064C111.8 68.368 112.848 68.672 113.664 68.976C114.48 69.28 115.176 69.76 115.752 70.416C116.344 71.072 116.64 71.96 116.64 73.08C116.64 74.04 116.368 74.92 115.824 75.72C115.296 76.504 114.496 77.128 113.424 77.592C112.352 78.056 111.048 78.288 109.512 78.288ZM122.542 64.368H117.166V61.2H131.806V64.368H126.43V78H122.542V64.368ZM141.081 78.288C138.681 78.288 136.809 77.624 135.465 76.296C134.137 74.968 133.473 73.072 133.473 70.608V61.2H137.361V70.464C137.361 73.472 138.609 74.976 141.105 74.976C142.321 74.976 143.249 74.616 143.889 73.896C144.529 73.16 144.849 72.016 144.849 70.464V61.2H148.689V70.608C148.689 73.072 148.017 74.968 146.673 76.296C145.345 77.624 143.481 78.288 141.081 78.288ZM152.531 61.2H160.163C161.987 61.2 163.595 61.552 164.987 62.256C166.395 62.944 167.483 63.92 168.251 65.184C169.035 66.448 169.427 67.92 169.427 69.6C169.427 71.28 169.035 72.752 168.251 74.016C167.483 75.28 166.395 76.264 164.987 76.968C163.595 77.656 161.987 78 160.163 78H152.531V61.2ZM159.971 74.808C161.651 74.808 162.987 74.344 163.979 73.416C164.987 72.472 165.491 71.2 165.491 69.6C165.491 68 164.987 66.736 163.979 65.808C162.987 64.864 161.651 64.392 159.971 64.392H156.419V74.808H159.971ZM172.359 61.2H176.247V78H172.359V61.2ZM188.37 78.288C186.626 78.288 185.05 77.912 183.642 77.16C182.25 76.408 181.154 75.376 180.354 74.064C179.57 72.736 179.178 71.248 179.178 69.6C179.178 67.952 179.57 66.472 180.354 65.16C181.154 63.832 182.25 62.792 183.642 62.04C185.05 61.288 186.626 60.912 188.37 60.912C190.114 60.912 191.682 61.288 193.074 62.04C194.466 62.792 195.562 63.832 196.362 65.16C197.162 66.472 197.562 67.952 197.562 69.6C197.562 71.248 197.162 72.736 196.362 74.064C195.562 75.376 194.466 76.408 193.074 77.16C191.682 77.912 190.114 78.288 188.37 78.288ZM188.37 74.976C189.362 74.976 190.258 74.752 191.058 74.304C191.858 73.84 192.482 73.2 192.93 72.384C193.394 71.568 193.626 70.64 193.626 69.6C193.626 68.56 193.394 67.632 192.93 66.816C192.482 66 191.858 65.368 191.058 64.92C190.258 64.456 189.362 64.224 188.37 64.224C187.378 64.224 186.482 64.456 185.682 64.92C184.882 65.368 184.25 66 183.786 66.816C183.338 67.632 183.114 68.56 183.114 69.6C183.114 70.64 183.338 71.568 183.786 72.384C184.25 73.2 184.882 73.84 185.682 74.304C186.482 74.752 187.378 74.976 188.37 74.976Z" fill="white"/>
</svg>
